HIERARCHY
ROOT Hips
{
	OFFSET -3.958830 18.904000 13.208200
	CHANNELS 6 Xposition Yposition Zposition Zrotation Yrotation Xrotation 
	JOINT LHipJoint
	{
		OFFSET 0.000000 0.000000 0.000000
		CHANNELS 3 Zrotation Yrotation Xrotation
		JOINT LeftUpLeg
		{
			OFFSET 1.800000 -1.400000 0.085000
			CHANNELS 3 Zrotation Yrotation Xrotation
			JOINT LeftLeg
			{
				OFFSET 2.215000 -6.000000 0.000000
				CHANNELS 3 Zrotation Yrotation Xrotation
				JOINT LeftFoot
				{
					OFFSET 2.500000 -6.900000 0.000000
					CHANNELS 3 Zrotation Yrotation Xrotation
					JOINT LeftToeBase
					{
						OFFSET 0.200000 -0.500000 1.950000
						CHANNELS 3 Zrotation Yrotation Xrotation
						End Site
						{
							OFFSET 0.000000 0.000000 0.000000
						}
					}
				}
			}
		}
	}
	JOINT RHipJoint
	{
		OFFSET 0.000000 0.000000 0.000000
		CHANNELS 3 Zrotation Yrotation Xrotation
		JOINT RightUpLeg
		{
			OFFSET -1.800000 -1.400000 0.085000
			CHANNELS 3 Zrotation Yrotation Xrotation
			JOINT RightLeg
			{
				OFFSET -2.215000 -6.000000 0.000000
				CHANNELS 3 Zrotation Yrotation Xrotation
				JOINT RightFoot
				{
					OFFSET -2.500000 -6.900000 0.000000
					CHANNELS 3 Zrotation Yrotation Xrotation
					JOINT RightToeBase
					{
						OFFSET -0.200000 -0.500000 1.950000
						CHANNELS 3 Zrotation Yrotation Xrotation
						End Site
						{
							OFFSET 0.000000 0.000000 0.000000
						}
					}
				}
			}
		}
	}
	JOINT LowerBack
	{
		OFFSET 0.000000 0.000000 0.000000
		CHANNELS 3 Zrotation Yrotation Xrotation
		JOINT Spine
		{
			OFFSET -0.087000 1.940000 -0.288900
			CHANNELS 3 Zrotation Yrotation Xrotation
			JOINT Spine1
			{
				OFFSET 0.000000 1.950000 0.060000
				CHANNELS 3 Zrotation Yrotation Xrotation
				JOINT Neck
				{
					OFFSET 0.000000 0.000000 0.000000
					CHANNELS 3 Zrotation Yrotation Xrotation
					JOINT Neck1
					{
						OFFSET 0.000000 1.600000 0.340000
						CHANNELS 3 Zrotation Yrotation Xrotation
						JOINT Head
						{
							OFFSET 0.000000 1.667000 -0.240000
							CHANNELS 3 Zrotation Yrotation Xrotation
							End Site
							{
								OFFSET 0.000000 0.000000 0.000000
							}
						}
					}
				}
				JOINT LeftShoulder
				{
					OFFSET 0.000000 0.000000 0.000000
					CHANNELS 3 Zrotation Yrotation Xrotation
					JOINT LeftArm
					{
						OFFSET 2.700000 1.550000 -0.730000
						CHANNELS 3 Zrotation Yrotation Xrotation
						JOINT LeftForeArm
						{
							OFFSET 5.450000 0.000000 0.000000
							CHANNELS 3 Zrotation Yrotation Xrotation
							JOINT LeftHand
							{
								OFFSET 3.450000 0.000000 0.000000
								CHANNELS 3 Zrotation Yrotation Xrotation
								JOINT LeftHandIndex1
								{
									OFFSET 0.750000 0.000000 0.000000
									CHANNELS 3 Zrotation Yrotation Xrotation
									End Site
									{
										OFFSET 0.000000 0.000000 0.000000
									}
								}
							}
						}
					}
				}
				JOINT RightShoulder
				{
					OFFSET 0.000000 0.000000 0.000000
					CHANNELS 3 Zrotation Yrotation Xrotation
					JOINT RightArm
					{
						OFFSET -2.700000 1.550000 -0.730000
						CHANNELS 3 Zrotation Yrotation Xrotation
						JOINT RightForeArm
						{
							OFFSET -5.450000 0.000000 0.000000
							CHANNELS 3 Zrotation Yrotation Xrotation
							JOINT RightHand
							{
								OFFSET -3.450000 0.000000 0.000000
								CHANNELS 3 Zrotation Yrotation Xrotation
								JOINT RightHandIndex1
								{
									OFFSET -0.750000 0.000000 0.000000
									CHANNELS 3 Zrotation Yrotation Xrotation
									End Site
									{
										OFFSET 0.000000 0.000000 0.000000
									}
								}
							}
						}
					}
				}
			}
		}
	}
}
MOTION
Frames: 4
Frame Time: 0.016667
0.083600 17.961340 -1.361760 -6.710177 -1.017608 -24.150371 -14.361877 12.056760 2.344859 25.160018 1.466865 16.591685 -0.290386 6.215861 3.447645 0.311707 5.881621 2.281551 0.625210 0.719290 0.636200 19.262898 -11.563939 2.592127 -13.645895 -5.517141 17.151182 -2.862447 -5.453480 3.424180 -1.379303 -5.570305 2.207251 0.314900 -0.541670 0.090820 -6.158616 1.154871 -6.667342 22.805388 -2.448727 16.513977 -8.146345 -5.230515 43.731140 6.392648 -2.430059 -22.050878 -15.896025 11.222864 86.304383 -1.222120 1.507660 -13.088820 -48.444288 -48.322923 26.238892 -10.900138 -22.701516 -2.793837 -105.489136 -70.604675 68.418076 -3.516259 2.172377 0.664820 -0.483550 0.711910 -0.064400 40.860106 48.735440 23.676937 11.574817 23.969593 -6.290039 100.355147 66.114588 52.006769 2.892300 -0.903865 0.134540 0.169180 -0.177960 -0.119660 
0.086370 17.959750 -1.371620 -6.660533 -0.874620 -24.304853 -14.286255 12.052636 2.282453 24.829057 1.478219 16.301597 0.011742 6.198743 4.313970 0.282900 5.809198 2.304707 0.608480 0.695070 0.630370 19.319008 -11.703276 2.625822 -13.708850 -5.499845 16.943684 -3.175835 -5.440900 3.692502 -1.371467 -5.577332 2.205595 0.302640 -0.532680 0.090380 -6.337214 1.381209 -6.694589 23.512259 -2.606584 16.827986 -8.548004 -5.368818 43.674794 6.355951 -2.555979 -22.288939 -16.141403 11.197473 86.221293 -1.705780 1.423750 -12.562550 -48.289019 -48.591870 26.059576 -10.570923 -22.294560 -3.012789 -106.353062 -70.315881 69.317624 -3.527676 2.166008 0.657670 -0.475480 0.699480 -0.071950 40.817443 48.764923 23.981620 11.826645 24.063999 -6.413386 100.203661 66.666114 51.924363 2.881999 -0.904040 0.129620 0.168490 -0.167160 -0.120040 
0.084410 17.958890 -1.359390 -6.753523 -0.607290 -24.113971 -14.334805 12.013603 2.269781 24.771633 1.453389 16.368322 0.280303 6.075910 3.619548 0.288554 5.800641 2.308858 0.602950 0.689900 0.628720 19.299551 -11.591626 2.627755 -13.911054 -5.522618 17.330534 -2.281562 -5.547050 2.814500 -1.377453 -5.641583 2.187283 0.300150 -0.532140 0.093730 -6.252542 1.277602 -6.637476 22.867112 -2.409868 16.201862 -8.318084 -5.236597 43.833012 6.348740 -2.192818 -21.928395 -14.831171 10.407270 86.357243 -1.686390 1.669570 -12.240760 -48.452574 -48.471171 26.051616 -10.563590 -22.286313 -2.892007 -106.590105 -70.163149 69.847667 -3.558901 2.140457 0.652190 -0.466420 0.694610 -0.076400 40.956815 48.546804 23.867139 11.917828 23.755350 -6.496900 101.126096 66.385959 52.560621 2.921260 -0.868034 0.129570 0.158170 -0.165130 -0.124070 
0.087300 17.956310 -1.347160 -6.871883 -0.805342 -23.820098 -14.343501 12.010596 2.268396 24.734966 1.394702 16.371957 0.536417 6.009019 3.374292 0.277931 5.810928 2.319174 0.582510 0.659680 0.618530 19.301676 -11.585114 2.601940 -13.284153 -5.504557 17.099740 -3.228483 -5.377093 3.084793 -1.354926 -5.582077 2.214719 0.292740 -0.506760 0.084170 -6.245918 1.285798 -6.567585 22.923164 -2.350981 15.669647 -8.187889 -5.314952 43.814698 6.399355 -2.319658 -21.831055 -15.181056 10.684103 86.236204 -1.664420 1.547440 -11.698210 -48.425261 -48.162000 26.133525 -11.019509 -22.275528 -2.800920 -106.156508 -70.291226 69.236050 -3.575065 2.122176 0.650460 -0.454420 0.675120 -0.077630 40.890553 48.485641 23.558083 11.880392 23.910401 -6.236966 101.283801 65.891317 52.831344 2.932574 -0.849066 0.108100 0.177850 -0.151580 -0.125720 
